<svg width="158" height="158" xmlns="http://www.w3.org/2000/svg"><g transform="translate(-46 -46)" fill-rule="nonzero" fill="none"><rect fill="#FFF" width="250" height="250" rx="5"/><g fill="#000"><path d="M199.52 64.97l-14.663-14.662c-1.897-1.898-4.484-2.933-7.244-2.933s-5.348 1.035-7.245 3.105l-7.418 7.245-73.14 73.14-8.625 28.98c-.863 2.588-.518 5.175.862 6.9 1.208 1.553 3.105 2.415 5.348 2.415.862 0 1.897-.172 2.76-.517l28.98-8.625.172.172 68.31-68.31 12.248-12.247c1.897-1.898 3.105-4.485 3.105-7.245-.345-2.76-1.38-5.348-3.45-7.418zM97.572 159.328l-6.9-6.9 4.14-13.973 16.733 16.732-13.973 4.14zm21.563-8.97l-19.493-19.493 63.308-63.308 9.832 9.833 9.833 9.832-63.48 63.135zm75.555-75.556l-7.245 7.245-9.832-9.832-9.833-9.833 7.245-7.245c1.38-1.38 3.623-1.38 4.83 0L194.518 69.8c.69.69 1.035 1.552 1.035 2.415.172 1.035-.173 1.898-.863 2.587z"/><path d="M156.567 80.667l-43.815 43.815c-1.38 1.38-1.38 3.45 0 4.83s3.45 1.38 4.83 0l43.988-43.987c1.38-1.38 1.38-3.45 0-4.83-1.38-1.207-3.622-1.207-5.002.172z"/><path d="M157.257 188.825c0 3.795-3.105 6.9-6.9 6.9H61.176c-3.795 0-6.9-3.105-6.9-6.9V99.643c0-3.796 3.105-6.9 6.9-6.9h44.678v-6.9H61.175c-7.59 0-13.8 6.21-13.8 13.8v89.182c0 7.59 6.21 13.8 13.8 13.8h89.183c7.59 0 13.8-6.21 13.8-13.8v-44.16h-6.9v44.16z"/></g></g></svg>